# xmcd
#
# Track frame offsets:
#	150
#	15412
#	33980
#	50307
#
# Disc length: 1028 seconds
#
# Revision: 4
# Processed by: cddbd v1.5.1PL0 Copyright (c) Steve Scherf et al.
# Submitted via: MusicWizard 7.2.0
#
DISCID=22040204
DTITLE=Michael Jackson - Gone Too Soon
DYEAR=1993
DGENRE=Pop
TTITLE0=Gone Too Soon
TTITLE1=Human Nature
TTITLE2=She's Out Of My Life
TTITLE3=Thriller
EXTD=
EXTT0=
EXTT1=
EXTT2=
EXTT3=
PLAYORDER=
